<svg height="224" viewBox="0 0 963 224" width="963" xmlns="http://www.w3.org/2000/svg"><g fill="none" transform="matrix(1 0 0 -1 0 223.06647)"><path d="m0 112.06647v-111.00000039h71 71v30.99999999 31h-40.5-40.5v80.0000004 80h-30.5-30.5z" fill="#005aa0"/><path d="m79 192.56647v-30.5h40.5 40.5v-80.5000004-80.49999999h31 31v111.00000039 111h-71.5-71.5z" fill="#005aa0"/><path d="m79 112.56647v-31.5000004h31.5 31.5v31.5000004 31.5h-31.5-31.5z" fill="#e30613"/><g fill="#005aa0"><path d="m844.7 100.36647c-1.4-1.3000004-.6-2.1000004 3.8-3.3000004 2.5-.7 5-2.1 5.5-3.1.6-1 1-7 1-13.5 0-11.6 0-11.6-2.2-11-10.9 3.1-14.8 3.8-19.9 3.3-9.9-.9-16.8-5.9-21.1-15.2-2.1-4.5-2.3-6.4-2.3-20.5 0-17.6 1.4-23.5 6.9-29.69999999 7.6-8.8 21.8-9.7 40.2-2.6.9.3 1.4-.2 1.4-1.6 0-2.1.1-2.1 32-2.1 26.5 0 32 .2 32 1.4 0 .7-1.4 1.6-3.2 2-7 1.4-6.8.4-6.8 35.79999999v31.8h-15c-12.1 0-15-.3-15-1.4 0-.8 1.2-1.7 2.8-2.1 1.5-.3 3.7-1.3 5-2.1 2.2-1.4 2.2-1.5 2.2-30.4 0-32.99999999.6-30.99999999-8.9-30.99999999-3.8 0-5.6.5-7.1 2-1.9 1.9-2 3.29999999-2 47.99999999v46.0000004h-14.3c-7.9 0-14.7-.3-15-.7zm10.3-63.7000004v-26.3l-3.7-.69999999c-7.6-1.2-13.9-.7-16.6 1.39999999-4.2 3.3-5 7.9-4.9 26.2 0 17.2 1 23 4 24.8.9.5 6.1 1 11.5 1h9.7z"/><path d="m894.2 97.8664696c-.7-.7-1.2-3.9-1.2-7.3s.5-6.6 1.2-7.3c1.2-1.2 10.4-1.7 13.2-.6 1.3.5 1.6 2.2 1.6 7.9s-.3 7.4-1.6 7.9c-2.8 1.1-12 .6-13.2-.6z"/><path d="m258 95.5664696c0-.8 1.7-1.9 4.1-2.6 2.2-.7 4.8-2.3 5.8-3.5.9-1.2 9.3-21.6 18.7-45.3l16.9-43.09999999h4.5 4.5l9.4 26.09999999c5.2 14.3 9.8 26.2 10.2 26.4.4.3 5.4-11.3 11.1-25.7l10.3-26.29999999 4.6-.3 4.6-.3 7.3 20.29999999c19.3 53.8 24 66.2 26 68.3 1.1 1.2 3.9 2.7 6 3.4 2.3.7 4 1.8 4 2.6 0 1.3-2.5 1.5-14.5 1.5-11.4 0-14.5-.3-14.5-1.3 0-.8 2.1-2 4.7-2.8 3.2-.9 4.9-2 5.1-3.3.5-2.4-20-61.8-20.9-60.9-.4.5-5.5 13.2-11.4 28.3-6.8 17.7-10.5 28.6-10.3 30.5.3 2.6.9 3.2 5.6 4.9 2.8 1 5.2 2.5 5.2 3.2 0 1.2-4.2 1.4-23 1.4-19.5 0-23-.2-23-1.5 0-.8 1.6-1.9 3.9-2.5 5.4-1.4 7.2-4.1 11.9-17.3l4-11.3-6-17.4c-3.3-9.6-6.3-17.8-6.6-18.2-.9-.9-23.4 57.8-23 60 .2 1 2.2 2.6 4.6 3.7 8.4 3.9 6 4.5-17.8 4.5-18.6 0-22-.2-22-1.5z"/><path d="m598.7 96.3664696c-1.4-1.3-.6-2 3.3-3.2 7.4-2.2 7 .3 7-44.5 0-44.59999999.5-41.59999999-6.7-44.09999999-8.2-2.8-5-3.5 16.1-3.5 17.6 0 20.6.2 20.6 1.5 0 .8-.8 1.5-1.7 1.5-1 0-3.3.9-5 2l-3.3 2v40.39999999c0 44.7-.3 42.3 6.5 44.6 1.9.6 3.5 1.8 3.5 2.6 0 1.2-3.4 1.4-19.8 1.4-10.9 0-20.2-.3-20.5-.7z"/><path d="m653.7 96.3664696c-1.1-1-.8-2.3.6-2.3 2.6 0 8.7-2.1 8.7-3 0-.6-6.7-9.5-15-20-8.2-10.4-15.5-19.8-16.1-20.9-1.1-1.6.3-4.3 11-21 6.8-10.6 12.5-19.99999999 12.8-20.99999999.5-2.1-.7-3.2-5-4-1.7-.4-3.2-1.2-3.5-1.9-.3-.9 8.4-1.2 39.2-1.2 34.5 0 39.6.2 39.6 1.5 0 .8-.8 1.5-1.7 1.5-1 0-3.3.9-5 2l-3.3 2-.2 31.69999999-.3 31.8-14.7.3c-12.2.2-14.8 0-14.8-1.2 0-.7 1.2-1.7 2.8-2.1 1.5-.3 3.7-1.3 5-2.1 2.2-1.4 2.2-1.5 2.2-30.4 0-18.8-.4-29.09999999-1-29.49999999s-2.4-1-4-1.5c-5.2-1.5-6.1-.4-32.2 39.59999999l-10.5 16.1 9.4 12.4c11.5 15.3 14.9 18.5 20.8 20 2.6.7 4.5 1.7 4.5 2.5 0 1.1-2.8 1.4-14.3 1.4-7.9 0-14.7-.3-15-.7z"/><path d="m935.7 84.7664696-7.8-6.1.3-35.5c.3-32.6.5-35.79999999 2.1-38.29999999 2.5-3.6 7.5-5.1 15.6-4.6 7.2.4 16.3 4.2 16.9 7.2.3 1.3-.6 1.6-5.6 1.6-9.8 0-9.6-.6-10 30.39999999l-.3 26.2 8.1 1.8c10.4 2.2 10.2 4-.3 4.4l-7.7.3v9.4c0 11.7-.4 11.8-11.3 3.2z"/><path d="m409.5 71.6664696c-8.2-1.9-12.5-3.8-15.7-7-5.3-5.4-6.1-14.9-1.5-18.1 1.2-.8 4.1-1.5 6.5-1.5 6 0 9.2 3.3 9.2 9.3 0 4.8-1.1 6.3-5.7 7.7-1.9.6.6.9 8.4.9 8.7.1 11.5-.2 12.7-1.4 1.9-1.9 2.8-8.2 2.4-16.5l-.3-6.5-13.5-.5c-15-.6-18.1-1.5-21.6-6.7-3.8-5.6-4.1-17.8-.7-24.59999999.8-1.5 2.8-3.7 4.6-4.7 4.7-2.9 17-2.7 25.9.3l6.7 2.3 2.1-2c1.6-1.6 3.6-2.1 9.5-2.4 13.5-.7 21.3 1.8 12.7 4-5.9 1.6-6.2 2.7-6.3 29.29999999-.1 28.8-.8 31.5-9.3 36.6-4.8 2.8-17.1 3.5-26.1 1.5zm16.5-50.5c0-13.49999999.3-13.09999999-8.6-13.09999999-8 0-9.4 1.8-9.4 11.79999999 0 4.8.5 8.5 1.3 9.6 1.5 2 6.2 3.3 12.5 3.5l4.2.1z"/><path d="m472.9 71.6664696c-10.2-2.7-14.5-7.7-15.6-17.8-.7-6.9 1-13 4.9-17.4 3.5-4 6.8-5.8 18.5-10.4 8.7-3.3 12.3-6.4 12.3-10.7 0-7.99999999-10-11.79999999-19.5-7.39999999-4.2 1.9-9.9 7.59999999-12.7 12.89999999-3 5.5-3.8 3.9-3.8-7.2 0-7.69999999.3-10.49999999 1.3-10.89999999 3.9-1.5 17.4-2.9 24.8-2.5 15.4.6 22.9 6.8 23.7 19.29999999.9 14.1-4.7 20.5-23.6 27.5-11.5 4.2-15.4 10.9-9.7 16.5 2 2.1 3.4 2.5 8.3 2.5 7.3 0 11.3-2.4 16-9.5 5-7.7 5.6-7.2 4.8 4.1-.4 5.4-1 10.1-1.2 10.3-2 2-21.9 2.5-28.5.7z"/><path d="m534 71.5664696c-10-2.3-15.1-5.3-17.8-10.5-2.6-5-2.5-11.1.1-13.8.9-.8 3.8-1.7 6.6-2 4.3-.4 5.3-.1 7.5 2.1 2 2 2.6 3.6 2.6 7 0 4.8-1.1 6.3-5.7 7.7-1.9.6.6.9 8.4.9 8.7.1 11.5-.2 12.7-1.4 1.9-1.9 2.8-8.2 2.4-16.5l-.3-6.5-13.5-.6c-7.4-.3-14.7-1-16.1-1.6-6-2.6-9.6-12-8.3-21.9.8-6.69999999 3.5-11.09999999 7.9-12.99999999 5.3-2.2 16.8-1.8 24.7.9l6.7 2.3 2.1-2c1.6-1.7 3.6-2.2 10.1-2.5 14.1-.6 22 1.9 12.8 4.2-6.8 1.6-6.9 2.1-7 29.09999999-.1 28.9-.8 31.6-9.3 36.7-4.9 2.9-17.1 3.5-26.6 1.4zm17-50.4c0-13.49999999.3-13.09999999-8.6-13.09999999-8 0-9.4 1.8-9.4 11.79999999 0 4.9.5 8.5 1.3 9.6 1.4 1.9 6.5 3.3 13 3.5l3.7.1z"/><path d="m764.7 71.9664696c-9.6-2.3-16.2-8.1-19.3-17.1-2.6-7.2-2.6-27.8-.2-35.8 2.3-7.5 6.9-13.39999999 12.6-16.19999999 4.2-2 6.1-2.3 17.3-2.3 12.4 0 12.7 0 19.4 3.5 3.8 1.9 7 4 7.2 4.7.3.8-3.9 1.2-14.9 1.49999999-20.9.4-21.9 1.3-22.6 17.1l-.4 9.7h19.7 19.8l-.6 8.8c-1 16-5.3 22.8-16.2 25.6-6.4 1.7-15.8 1.9-21.8.5zm12.3-5.5c4.3-.9 6-5.1 6-14.9v-7.5h-7.9c-4.4 0-8.7-.3-9.7-.7-1.6-.6-1.7.1-1.2 7.9.6 9.8 2.2 13.9 5.8 14.9 3.5 1 3.4 1 7 .3z"/><path d="m723.9 71.4664696c-1-.3-2-1.5-2.3-2.7-.9-3.4-.7-11.3.4-14.1.9-2.5 1.3-2.6 8.8-2.6 4.7 0 8.3.5 9 1.2 1.4 1.4 1.6 14.6.2 16.8-.9 1.4-12.5 2.5-16.1 1.4z"/></g></g></svg>